<svg width="504" height="92" viewBox="0 0 504 92" fill="none" xmlns="http://www.w3.org/2000/svg">
<g opacity="0.25">
<rect x="29.5" y="18.5" width="11" height="11" fill="#A69FFF" stroke="#4638FF"/>
<rect x="15.5" y="18.5" width="11" height="11" fill="#A69FFF" stroke="#4638FF"/>
<rect x="57.5" y="18.5" width="11" height="11" fill="#A69FFF" stroke="#4638FF"/>
<rect x="29" y="32" width="12" height="12" fill="#D9D9D9"/>
<rect x="15" y="32" width="12" height="12" fill="#D9D9D9"/>
<rect x="29" y="46" width="12" height="12" fill="#D9D9D9"/>
<rect x="29" y="60" width="12" height="12" fill="#D9D9D9"/>
<rect x="29" y="74" width="12" height="12" fill="#D9D9D9"/>
<rect x="15" y="46" width="12" height="12" fill="#D9D9D9"/>
<rect x="15" y="60" width="12" height="12" fill="#D9D9D9"/>
<rect x="15" y="74" width="12" height="12" fill="#D9D9D9"/>
<rect x="57" y="32" width="12" height="12" fill="#D9D9D9"/>
<rect x="57" y="46" width="12" height="12" fill="#D9D9D9"/>
<rect x="57" y="60" width="12" height="12" fill="#D9D9D9"/>
<rect x="57" y="74" width="12" height="12" fill="#D9D9D9"/>
<rect x="71" y="60" width="12" height="12" fill="#D9D9D9"/>
<rect x="71" y="74" width="12" height="12" fill="#D9D9D9"/>
<rect x="43.5" y="18.5" width="11" height="11" fill="#A69FFF" stroke="#4638FF"/>
<rect x="71.5" y="18.5" width="11" height="11" fill="#A69FFF" stroke="#4638FF"/>
<rect x="43.5" y="32.5" width="11" height="11" fill="#A69FFF" stroke="#4638FF"/>
<rect x="43.5" y="46.5" width="11" height="11" fill="#A69FFF" stroke="#4638FF"/>
<rect x="43.5" y="60.5" width="11" height="11" fill="#A69FFF" stroke="#4638FF"/>
<rect x="43.5" y="74.5" width="11" height="11" fill="#A69FFF" stroke="#4638FF"/>
<rect x="71" y="32" width="12" height="12" fill="#D9D9D9"/>
<rect x="71" y="46" width="12" height="12" fill="#D9D9D9"/>
<path d="M31 28L31 20" stroke="#4638FF" stroke-width="0.5"/>
<path d="M17 28L17 20" stroke="#4638FF" stroke-width="0.5"/>
<path d="M59 28L59 20" stroke="#4638FF" stroke-width="0.5"/>
<path d="M31 42L31 34" stroke="#B3B3B3" stroke-width="0.5"/>
<path d="M17 42L17 34" stroke="#B3B3B3" stroke-width="0.5"/>
<path d="M31 56L31 48" stroke="#B3B3B3" stroke-width="0.5"/>
<path d="M31 70L31 62" stroke="#B3B3B3" stroke-width="0.5"/>
<path d="M31 84L31 76" stroke="#B3B3B3" stroke-width="0.5"/>
<path d="M17 56L17 48" stroke="#B3B3B3" stroke-width="0.5"/>
<path d="M17 70L17 62" stroke="#B3B3B3" stroke-width="0.5"/>
<path d="M17 84L17 76" stroke="#B3B3B3" stroke-width="0.5"/>
<path d="M59 42L59 34" stroke="#B3B3B3" stroke-width="0.5"/>
<path d="M59 56L59 48" stroke="#B3B3B3" stroke-width="0.5"/>
<path d="M59 70L59 62" stroke="#B3B3B3" stroke-width="0.5"/>
<path d="M59 84L59 76" stroke="#B3B3B3" stroke-width="0.5"/>
<path d="M73 70L73 62" stroke="#B3B3B3" stroke-width="0.5"/>
<path d="M73 84L73 76" stroke="#B3B3B3" stroke-width="0.5"/>
<path d="M45 28L45 20" stroke="#4638FF" stroke-width="0.5"/>
<path d="M73 28L73 20" stroke="#4638FF" stroke-width="0.5"/>
<path d="M45 42L45 34" stroke="#4638FF" stroke-width="0.5"/>
<path d="M45 56L45 48" stroke="#4638FF" stroke-width="0.5"/>
<path d="M45 70L45 62" stroke="#4638FF" stroke-width="0.5"/>
<path d="M45 84L45 76" stroke="#4638FF" stroke-width="0.5"/>
<path d="M73 42L73 34" stroke="#B3B3B3" stroke-width="0.5"/>
<path d="M73 56L73 48" stroke="#B3B3B3" stroke-width="0.5"/>
<path d="M33 28L33 20" stroke="#4638FF" stroke-width="0.5"/>
<path d="M19 28L19 20" stroke="#4638FF" stroke-width="0.5"/>
<path d="M61 28L61 20" stroke="#4638FF" stroke-width="0.5"/>
<path d="M33 42L33 34" stroke="#B3B3B3" stroke-width="0.5"/>
<path d="M19 42L19 34" stroke="#B3B3B3" stroke-width="0.5"/>
<path d="M33 56L33 48" stroke="#B3B3B3" stroke-width="0.5"/>
<path d="M33 70L33 62" stroke="#B3B3B3" stroke-width="0.5"/>
<path d="M33 84L33 76" stroke="#B3B3B3" stroke-width="0.5"/>
<path d="M19 56L19 48" stroke="#B3B3B3" stroke-width="0.5"/>
<path d="M19 70L19 62" stroke="#B3B3B3" stroke-width="0.5"/>
<path d="M19 84L19 76" stroke="#B3B3B3" stroke-width="0.5"/>
<path d="M61 42L61 34" stroke="#B3B3B3" stroke-width="0.5"/>
<path d="M61 56L61 48" stroke="#B3B3B3" stroke-width="0.5"/>
<path d="M61 70L61 62" stroke="#B3B3B3" stroke-width="0.5"/>
<path d="M61 84L61 76" stroke="#B3B3B3" stroke-width="0.5"/>
<path d="M75 70L75 62" stroke="#B3B3B3" stroke-width="0.5"/>
<path d="M75 84L75 76" stroke="#B3B3B3" stroke-width="0.5"/>
<path d="M47 28L47 20" stroke="#4638FF" stroke-width="0.5"/>
<path d="M75 28L75 20" stroke="#4638FF" stroke-width="0.5"/>
<path d="M47 42L47 34" stroke="#4638FF" stroke-width="0.5"/>
<path d="M47 56L47 48" stroke="#4638FF" stroke-width="0.5"/>
<path d="M47 70L47 62" stroke="#4638FF" stroke-width="0.5"/>
<path d="M47 84L47 76" stroke="#4638FF" stroke-width="0.5"/>
<path d="M75 42L75 34" stroke="#B3B3B3" stroke-width="0.5"/>
<path d="M75 56L75 48" stroke="#B3B3B3" stroke-width="0.5"/>
<path d="M35 28L35 20" stroke="#4638FF" stroke-width="0.5"/>
<path d="M21 28L21 20" stroke="#4638FF" stroke-width="0.5"/>
<path d="M63 28L63 20" stroke="#4638FF" stroke-width="0.5"/>
<path d="M35 42L35 34" stroke="#B3B3B3" stroke-width="0.5"/>
<path d="M21 42L21 34" stroke="#B3B3B3" stroke-width="0.5"/>
<path d="M35 56L35 48" stroke="#B3B3B3" stroke-width="0.5"/>
<path d="M35 70L35 62" stroke="#B3B3B3" stroke-width="0.5"/>
<path d="M35 84L35 76" stroke="#B3B3B3" stroke-width="0.5"/>
<path d="M21 56L21 48" stroke="#B3B3B3" stroke-width="0.5"/>
<path d="M21 70L21 62" stroke="#B3B3B3" stroke-width="0.5"/>
<path d="M21 84L21 76" stroke="#B3B3B3" stroke-width="0.5"/>
<path d="M63 42L63 34" stroke="#B3B3B3" stroke-width="0.5"/>
<path d="M63 56L63 48" stroke="#B3B3B3" stroke-width="0.5"/>
<path d="M63 70L63 62" stroke="#B3B3B3" stroke-width="0.5"/>
<path d="M63 84L63 76" stroke="#B3B3B3" stroke-width="0.5"/>
<path d="M77 70L77 62" stroke="#B3B3B3" stroke-width="0.5"/>
<path d="M77 84L77 76" stroke="#B3B3B3" stroke-width="0.5"/>
<path d="M49 28L49 20" stroke="#4638FF" stroke-width="0.5"/>
<path d="M77 28L77 20" stroke="#4638FF" stroke-width="0.5"/>
<path d="M49 42L49 34" stroke="#4638FF" stroke-width="0.5"/>
<path d="M49 56L49 48" stroke="#4638FF" stroke-width="0.5"/>
<path d="M49 70L49 62" stroke="#4638FF" stroke-width="0.5"/>
<path d="M49 84L49 76" stroke="#4638FF" stroke-width="0.5"/>
<path d="M77 42L77 34" stroke="#B3B3B3" stroke-width="0.5"/>
<path d="M77 56L77 48" stroke="#B3B3B3" stroke-width="0.5"/>
<path d="M37 28L37 20" stroke="#4638FF" stroke-width="0.5"/>
<path d="M23 28L23 20" stroke="#4638FF" stroke-width="0.5"/>
<path d="M65 28L65 20" stroke="#4638FF" stroke-width="0.5"/>
<path d="M37 42L37 34" stroke="#B3B3B3" stroke-width="0.5"/>
<path d="M23 42L23 34" stroke="#B3B3B3" stroke-width="0.5"/>
<path d="M37 56L37 48" stroke="#B3B3B3" stroke-width="0.5"/>
<path d="M37 70L37 62" stroke="#B3B3B3" stroke-width="0.5"/>
<path d="M37 84L37 76" stroke="#B3B3B3" stroke-width="0.5"/>
<path d="M23 56L23 48" stroke="#B3B3B3" stroke-width="0.5"/>
<path d="M23 70L23 62" stroke="#B3B3B3" stroke-width="0.5"/>
<path d="M23 84L23 76" stroke="#B3B3B3" stroke-width="0.5"/>
<path d="M65 42L65 34" stroke="#B3B3B3" stroke-width="0.5"/>
<path d="M65 56L65 48" stroke="#B3B3B3" stroke-width="0.5"/>
<path d="M65 70L65 62" stroke="#B3B3B3" stroke-width="0.5"/>
<path d="M65 84L65 76" stroke="#B3B3B3" stroke-width="0.5"/>
<path d="M79 70L79 62" stroke="#B3B3B3" stroke-width="0.5"/>
<path d="M79 84L79 76" stroke="#B3B3B3" stroke-width="0.5"/>
<path d="M51 28L51 20" stroke="#4638FF" stroke-width="0.5"/>
<path d="M79 28L79 20" stroke="#4638FF" stroke-width="0.5"/>
<path d="M51 42L51 34" stroke="#4638FF" stroke-width="0.5"/>
<path d="M51 56L51 48" stroke="#4638FF" stroke-width="0.5"/>
<path d="M51 70L51 62" stroke="#4638FF" stroke-width="0.5"/>
<path d="M51 84L51 76" stroke="#4638FF" stroke-width="0.5"/>
<path d="M79 42L79 34" stroke="#B3B3B3" stroke-width="0.5"/>
<path d="M79 56L79 48" stroke="#B3B3B3" stroke-width="0.5"/>
<path d="M39 28L39 20" stroke="#4638FF" stroke-width="0.5"/>
<path d="M25 28L25 20" stroke="#4638FF" stroke-width="0.5"/>
<path d="M67 28L67 20" stroke="#4638FF" stroke-width="0.5"/>
<path d="M39 42L39 34" stroke="#B3B3B3" stroke-width="0.5"/>
<path d="M25 42L25 34" stroke="#B3B3B3" stroke-width="0.5"/>
<path d="M39 56L39 48" stroke="#B3B3B3" stroke-width="0.5"/>
<path d="M39 70L39 62" stroke="#B3B3B3" stroke-width="0.5"/>
<path d="M39 84L39 76" stroke="#B3B3B3" stroke-width="0.5"/>
<path d="M25 56L25 48" stroke="#B3B3B3" stroke-width="0.5"/>
<path d="M25 70L25 62" stroke="#B3B3B3" stroke-width="0.5"/>
<path d="M25 84L25 76" stroke="#B3B3B3" stroke-width="0.5"/>
<path d="M67 42L67 34" stroke="#B3B3B3" stroke-width="0.5"/>
<path d="M67 56L67 48" stroke="#B3B3B3" stroke-width="0.5"/>
<path d="M67 70L67 62" stroke="#B3B3B3" stroke-width="0.5"/>
<path d="M67 84L67 76" stroke="#B3B3B3" stroke-width="0.5"/>
<path d="M81 70L81 62" stroke="#B3B3B3" stroke-width="0.5"/>
<path d="M81 84L81 76" stroke="#B3B3B3" stroke-width="0.5"/>
<path d="M53 28L53 20" stroke="#4638FF" stroke-width="0.5"/>
<path d="M81 28L81 20" stroke="#4638FF" stroke-width="0.5"/>
<path d="M53 42L53 34" stroke="#4638FF" stroke-width="0.5"/>
<path d="M53 56L53 48" stroke="#4638FF" stroke-width="0.5"/>
<path d="M53 70L53 62" stroke="#4638FF" stroke-width="0.5"/>
<path d="M53 84L53 76" stroke="#4638FF" stroke-width="0.5"/>
<path d="M81 42L81 34" stroke="#B3B3B3" stroke-width="0.5"/>
<path d="M81 56L81 48" stroke="#B3B3B3" stroke-width="0.5"/>
</g>
<g opacity="0.5">
<rect x="26.5" y="14.5" width="11" height="11" fill="#A69FFF" stroke="#4638FF"/>
<rect x="12.5" y="14.5" width="11" height="11" fill="#A69FFF" stroke="#4638FF"/>
<rect x="54.5" y="14.5" width="11" height="11" fill="#A69FFF" stroke="#4638FF"/>
<rect x="26" y="28" width="12" height="12" fill="#D9D9D9"/>
<rect x="12" y="28" width="12" height="12" fill="#D9D9D9"/>
<rect x="26" y="42" width="12" height="12" fill="#D9D9D9"/>
<rect x="26" y="56" width="12" height="12" fill="#D9D9D9"/>
<rect x="26" y="70" width="12" height="12" fill="#D9D9D9"/>
<rect x="12" y="42" width="12" height="12" fill="#D9D9D9"/>
<rect x="12" y="56" width="12" height="12" fill="#D9D9D9"/>
<rect x="12" y="70" width="12" height="12" fill="#D9D9D9"/>
<rect x="54" y="28" width="12" height="12" fill="#D9D9D9"/>
<rect x="54" y="42" width="12" height="12" fill="#D9D9D9"/>
<rect x="54" y="56" width="12" height="12" fill="#D9D9D9"/>
<rect x="54" y="70" width="12" height="12" fill="#D9D9D9"/>
<rect x="68" y="56" width="12" height="12" fill="#D9D9D9"/>
<rect x="68" y="70" width="12" height="12" fill="#D9D9D9"/>
<rect x="40.5" y="14.5" width="11" height="11" fill="#A69FFF" stroke="#4638FF"/>
<rect x="68.5" y="14.5" width="11" height="11" fill="#A69FFF" stroke="#4638FF"/>
<rect x="40.5" y="28.5" width="11" height="11" fill="#A69FFF" stroke="#4638FF"/>
<rect x="40.5" y="42.5" width="11" height="11" fill="#A69FFF" stroke="#4638FF"/>
<rect x="40.5" y="56.5" width="11" height="11" fill="#A69FFF" stroke="#4638FF"/>
<rect x="40.5" y="70.5" width="11" height="11" fill="#A69FFF" stroke="#4638FF"/>
<rect x="68" y="28" width="12" height="12" fill="#D9D9D9"/>
<rect x="68" y="42" width="12" height="12" fill="#D9D9D9"/>
<path d="M28 24L28 16" stroke="#4638FF" stroke-width="0.5"/>
<path d="M14 24L14 16" stroke="#4638FF" stroke-width="0.5"/>
<path d="M56 24L56 16" stroke="#4638FF" stroke-width="0.5"/>
<path d="M28 38L28 30" stroke="#B3B3B3" stroke-width="0.5"/>
<path d="M14 38L14 30" stroke="#B3B3B3" stroke-width="0.5"/>
<path d="M28 52L28 44" stroke="#B3B3B3" stroke-width="0.5"/>
<path d="M28 66L28 58" stroke="#B3B3B3" stroke-width="0.5"/>
<path d="M28 80L28 72" stroke="#B3B3B3" stroke-width="0.5"/>
<path d="M14 52L14 44" stroke="#B3B3B3" stroke-width="0.5"/>
<path d="M14 66L14 58" stroke="#B3B3B3" stroke-width="0.5"/>
<path d="M14 80L14 72" stroke="#B3B3B3" stroke-width="0.5"/>
<path d="M56 38L56 30" stroke="#B3B3B3" stroke-width="0.5"/>
<path d="M56 52L56 44" stroke="#B3B3B3" stroke-width="0.5"/>
<path d="M56 66L56 58" stroke="#B3B3B3" stroke-width="0.5"/>
<path d="M56 80L56 72" stroke="#B3B3B3" stroke-width="0.5"/>
<path d="M70 66L70 58" stroke="#B3B3B3" stroke-width="0.5"/>
<path d="M70 80L70 72" stroke="#B3B3B3" stroke-width="0.5"/>
<path d="M42 24L42 16" stroke="#4638FF" stroke-width="0.5"/>
<path d="M70 24L70 16" stroke="#4638FF" stroke-width="0.5"/>
<path d="M42 38L42 30" stroke="#4638FF" stroke-width="0.5"/>
<path d="M42 52L42 44" stroke="#4638FF" stroke-width="0.5"/>
<path d="M42 66L42 58" stroke="#4638FF" stroke-width="0.5"/>
<path d="M42 80L42 72" stroke="#4638FF" stroke-width="0.5"/>
<path d="M70 38L70 30" stroke="#B3B3B3" stroke-width="0.5"/>
<path d="M70 52L70 44" stroke="#B3B3B3" stroke-width="0.5"/>
<path d="M30 24L30 16" stroke="#4638FF" stroke-width="0.5"/>
<path d="M16 24L16 16" stroke="#4638FF" stroke-width="0.5"/>
<path d="M58 24L58 16" stroke="#4638FF" stroke-width="0.5"/>
<path d="M30 38L30 30" stroke="#B3B3B3" stroke-width="0.5"/>
<path d="M16 38L16 30" stroke="#B3B3B3" stroke-width="0.5"/>
<path d="M30 52L30 44" stroke="#B3B3B3" stroke-width="0.5"/>
<path d="M30 66L30 58" stroke="#B3B3B3" stroke-width="0.5"/>
<path d="M30 80L30 72" stroke="#B3B3B3" stroke-width="0.5"/>
<path d="M16 52L16 44" stroke="#B3B3B3" stroke-width="0.5"/>
<path d="M16 66L16 58" stroke="#B3B3B3" stroke-width="0.5"/>
<path d="M16 80L16 72" stroke="#B3B3B3" stroke-width="0.5"/>
<path d="M58 38L58 30" stroke="#B3B3B3" stroke-width="0.5"/>
<path d="M58 52L58 44" stroke="#B3B3B3" stroke-width="0.5"/>
<path d="M58 66L58 58" stroke="#B3B3B3" stroke-width="0.5"/>
<path d="M58 80L58 72" stroke="#B3B3B3" stroke-width="0.5"/>
<path d="M72 66L72 58" stroke="#B3B3B3" stroke-width="0.5"/>
<path d="M72 80L72 72" stroke="#B3B3B3" stroke-width="0.5"/>
<path d="M44 24L44 16" stroke="#4638FF" stroke-width="0.5"/>
<path d="M72 24L72 16" stroke="#4638FF" stroke-width="0.5"/>
<path d="M44 38L44 30" stroke="#4638FF" stroke-width="0.5"/>
<path d="M44 52L44 44" stroke="#4638FF" stroke-width="0.5"/>
<path d="M44 66L44 58" stroke="#4638FF" stroke-width="0.5"/>
<path d="M44 80L44 72" stroke="#4638FF" stroke-width="0.5"/>
<path d="M72 38L72 30" stroke="#B3B3B3" stroke-width="0.5"/>
<path d="M72 52L72 44" stroke="#B3B3B3" stroke-width="0.5"/>
<path d="M32 24L32 16" stroke="#4638FF" stroke-width="0.5"/>
<path d="M18 24L18 16" stroke="#4638FF" stroke-width="0.5"/>
<path d="M60 24L60 16" stroke="#4638FF" stroke-width="0.5"/>
<path d="M32 38L32 30" stroke="#B3B3B3" stroke-width="0.5"/>
<path d="M18 38L18 30" stroke="#B3B3B3" stroke-width="0.5"/>
<path d="M32 52L32 44" stroke="#B3B3B3" stroke-width="0.5"/>
<path d="M32 66L32 58" stroke="#B3B3B3" stroke-width="0.5"/>
<path d="M32 80L32 72" stroke="#B3B3B3" stroke-width="0.5"/>
<path d="M18 52L18 44" stroke="#B3B3B3" stroke-width="0.5"/>
<path d="M18 66L18 58" stroke="#B3B3B3" stroke-width="0.5"/>
<path d="M18 80L18 72" stroke="#B3B3B3" stroke-width="0.5"/>
<path d="M60 38L60 30" stroke="#B3B3B3" stroke-width="0.5"/>
<path d="M60 52L60 44" stroke="#B3B3B3" stroke-width="0.5"/>
<path d="M60 66L60 58" stroke="#B3B3B3" stroke-width="0.5"/>
<path d="M60 80L60 72" stroke="#B3B3B3" stroke-width="0.5"/>
<path d="M74 66L74 58" stroke="#B3B3B3" stroke-width="0.5"/>
<path d="M74 80L74 72" stroke="#B3B3B3" stroke-width="0.5"/>
<path d="M46 24L46 16" stroke="#4638FF" stroke-width="0.5"/>
<path d="M74 24L74 16" stroke="#4638FF" stroke-width="0.5"/>
<path d="M46 38L46 30" stroke="#4638FF" stroke-width="0.5"/>
<path d="M46 52L46 44" stroke="#4638FF" stroke-width="0.5"/>
<path d="M46 66L46 58" stroke="#4638FF" stroke-width="0.5"/>
<path d="M46 80L46 72" stroke="#4638FF" stroke-width="0.5"/>
<path d="M74 38L74 30" stroke="#B3B3B3" stroke-width="0.5"/>
<path d="M74 52L74 44" stroke="#B3B3B3" stroke-width="0.5"/>
<path d="M34 24L34 16" stroke="#4638FF" stroke-width="0.5"/>
<path d="M20 24L20 16" stroke="#4638FF" stroke-width="0.5"/>
<path d="M62 24L62 16" stroke="#4638FF" stroke-width="0.5"/>
<path d="M34 38L34 30" stroke="#B3B3B3" stroke-width="0.5"/>
<path d="M20 38L20 30" stroke="#B3B3B3" stroke-width="0.5"/>
<path d="M34 52L34 44" stroke="#B3B3B3" stroke-width="0.5"/>
<path d="M34 66L34 58" stroke="#B3B3B3" stroke-width="0.5"/>
<path d="M34 80L34 72" stroke="#B3B3B3" stroke-width="0.5"/>
<path d="M20 52L20 44" stroke="#B3B3B3" stroke-width="0.5"/>
<path d="M20 66L20 58" stroke="#B3B3B3" stroke-width="0.5"/>
<path d="M20 80L20 72" stroke="#B3B3B3" stroke-width="0.5"/>
<path d="M62 38L62 30" stroke="#B3B3B3" stroke-width="0.5"/>
<path d="M62 52L62 44" stroke="#B3B3B3" stroke-width="0.5"/>
<path d="M62 66L62 58" stroke="#B3B3B3" stroke-width="0.5"/>
<path d="M62 80L62 72" stroke="#B3B3B3" stroke-width="0.5"/>
<path d="M76 66L76 58" stroke="#B3B3B3" stroke-width="0.5"/>
<path d="M76 80L76 72" stroke="#B3B3B3" stroke-width="0.5"/>
<path d="M48 24L48 16" stroke="#4638FF" stroke-width="0.5"/>
<path d="M76 24L76 16" stroke="#4638FF" stroke-width="0.5"/>
<path d="M48 38L48 30" stroke="#4638FF" stroke-width="0.5"/>
<path d="M48 52L48 44" stroke="#4638FF" stroke-width="0.5"/>
<path d="M48 66L48 58" stroke="#4638FF" stroke-width="0.5"/>
<path d="M48 80L48 72" stroke="#4638FF" stroke-width="0.5"/>
<path d="M76 38L76 30" stroke="#B3B3B3" stroke-width="0.5"/>
<path d="M76 52L76 44" stroke="#B3B3B3" stroke-width="0.5"/>
<path d="M36 24L36 16" stroke="#4638FF" stroke-width="0.5"/>
<path d="M22 24L22 16" stroke="#4638FF" stroke-width="0.5"/>
<path d="M64 24L64 16" stroke="#4638FF" stroke-width="0.5"/>
<path d="M36 38L36 30" stroke="#B3B3B3" stroke-width="0.5"/>
<path d="M22 38L22 30" stroke="#B3B3B3" stroke-width="0.5"/>
<path d="M36 52L36 44" stroke="#B3B3B3" stroke-width="0.5"/>
<path d="M36 66L36 58" stroke="#B3B3B3" stroke-width="0.5"/>
<path d="M36 80L36 72" stroke="#B3B3B3" stroke-width="0.5"/>
<path d="M22 52L22 44" stroke="#B3B3B3" stroke-width="0.5"/>
<path d="M22 66L22 58" stroke="#B3B3B3" stroke-width="0.5"/>
<path d="M22 80L22 72" stroke="#B3B3B3" stroke-width="0.5"/>
<path d="M64 38L64 30" stroke="#B3B3B3" stroke-width="0.5"/>
<path d="M64 52L64 44" stroke="#B3B3B3" stroke-width="0.5"/>
<path d="M64 66L64 58" stroke="#B3B3B3" stroke-width="0.5"/>
<path d="M64 80L64 72" stroke="#B3B3B3" stroke-width="0.5"/>
<path d="M78 66L78 58" stroke="#B3B3B3" stroke-width="0.5"/>
<path d="M78 80L78 72" stroke="#B3B3B3" stroke-width="0.5"/>
<path d="M50 24L50 16" stroke="#4638FF" stroke-width="0.5"/>
<path d="M78 24L78 16" stroke="#4638FF" stroke-width="0.5"/>
<path d="M50 38L50 30" stroke="#4638FF" stroke-width="0.5"/>
<path d="M50 52L50 44" stroke="#4638FF" stroke-width="0.5"/>
<path d="M50 66L50 58" stroke="#4638FF" stroke-width="0.5"/>
<path d="M50 80L50 72" stroke="#4638FF" stroke-width="0.5"/>
<path d="M78 38L78 30" stroke="#B3B3B3" stroke-width="0.5"/>
<path d="M78 52L78 44" stroke="#B3B3B3" stroke-width="0.5"/>
</g>
<path d="M106.732 68V27.923H92.8309V20.5314H129.653V27.923H115.819V68H106.732ZM146.256 68.8137C142.82 68.8137 139.768 68.0904 137.101 66.6438C134.479 65.1519 132.422 63.0949 130.93 60.4728C129.484 57.8056 128.76 54.7314 128.76 51.2504C128.76 47.6789 129.484 44.537 130.93 41.8245C132.422 39.0668 134.479 36.9194 137.101 35.3823C139.723 33.8 142.775 33.0089 146.256 33.0089C149.646 33.0089 152.608 33.7548 155.139 35.2467C157.671 36.7386 159.637 38.7503 161.039 41.282C162.44 43.8136 163.141 46.6844 163.141 49.8941C163.141 50.3462 163.141 50.8661 163.141 51.4538C163.141 51.9963 163.096 52.5614 163.005 53.1491H135.27V47.5885H153.919C153.783 45.3733 152.992 43.6328 151.545 42.367C150.144 41.1011 148.381 40.4682 146.256 40.4682C144.719 40.4682 143.295 40.8299 141.984 41.5532C140.673 42.2313 139.633 43.2937 138.864 44.7404C138.141 46.1871 137.779 48.018 137.779 50.2332V52.1997C137.779 54.0533 138.118 55.6808 138.797 57.0822C139.52 58.4385 140.514 59.5009 141.78 60.2694C143.046 60.9927 144.515 61.3544 146.188 61.3544C147.861 61.3544 149.24 60.9927 150.325 60.2694C151.455 59.5461 152.291 58.6193 152.834 57.4891H162.192C161.559 59.6139 160.496 61.5352 159.005 63.2531C157.513 64.9711 155.682 66.3273 153.512 67.3219C151.342 68.3165 148.923 68.8137 146.256 68.8137ZM170.639 68V33.8226H178.708L179.386 39.3832C180.426 37.4845 181.895 35.9474 183.794 34.772C185.738 33.5966 188.044 33.0089 190.711 33.0089C193.559 33.0089 195.955 33.5966 197.899 34.772C199.843 35.9474 201.312 37.6653 202.307 39.9257C203.347 42.1861 203.867 44.9664 203.867 48.2666V68H194.78V49.1482C194.78 46.4357 194.192 44.3561 193.017 42.9095C191.886 41.4628 190.123 40.7395 187.727 40.7395C186.19 40.7395 184.811 41.1011 183.591 41.8245C182.415 42.5478 181.489 43.5876 180.81 44.9438C180.132 46.2549 179.793 47.8598 179.793 49.7585V68H170.639ZM226.461 68.8137C223.341 68.8137 220.629 68.3165 218.323 67.3219C216.018 66.3273 214.209 64.9484 212.898 63.1853C211.587 61.4222 210.841 59.4331 210.661 57.2179H219.747C219.973 58.0768 220.358 58.868 220.9 59.5913C221.443 60.2694 222.166 60.8119 223.07 61.2188C223.974 61.6256 225.059 61.8291 226.325 61.8291C227.546 61.8291 228.54 61.6709 229.309 61.3544C230.077 60.9927 230.643 60.518 231.004 59.9303C231.411 59.3426 231.615 58.7323 231.615 58.0994C231.615 57.15 231.343 56.4267 230.801 55.9294C230.258 55.3869 229.467 54.9574 228.427 54.641C227.388 54.3245 226.122 54.0081 224.63 53.6916C223.002 53.3752 221.397 52.9909 219.815 52.5388C218.278 52.0415 216.899 51.4312 215.679 50.7079C214.458 49.9845 213.486 49.0578 212.763 47.9276C212.039 46.7974 211.678 45.3959 211.678 43.7232C211.678 41.6888 212.22 39.8805 213.305 38.2982C214.39 36.6707 215.972 35.3823 218.052 34.4329C220.132 33.4836 222.641 33.0089 225.579 33.0089C229.693 33.0089 232.948 33.9356 235.344 35.7892C237.74 37.6427 239.164 40.197 239.616 43.452H231.004C230.733 42.4122 230.123 41.5984 229.173 41.0107C228.269 40.3778 227.048 40.0614 225.511 40.0614C223.884 40.0614 222.641 40.3552 221.782 40.9429C220.923 41.5306 220.493 42.2992 220.493 43.2485C220.493 43.8814 220.765 44.4465 221.307 44.9438C221.895 45.4411 222.709 45.8706 223.748 46.2323C224.788 46.5487 226.054 46.8652 227.546 47.1816C230.168 47.7241 232.473 48.3571 234.463 49.0804C236.452 49.7585 238.011 50.7531 239.142 52.0641C240.272 53.33 240.837 55.1835 240.837 57.6247C240.837 59.7947 240.249 61.7387 239.074 63.4566C237.898 65.1293 236.226 66.4403 234.056 67.3897C231.931 68.3391 229.399 68.8137 226.461 68.8137ZM264.722 68.8137C261.467 68.8137 258.529 68.0678 255.907 66.5759C253.33 65.0389 251.273 62.9367 249.736 60.2694C248.244 57.5569 247.498 54.4602 247.498 50.9791C247.498 47.4077 248.244 44.2883 249.736 41.621C251.273 38.9085 253.352 36.8064 255.974 35.3145C258.597 33.7774 261.535 33.0089 264.79 33.0089C268.09 33.0089 271.029 33.7774 273.606 35.3145C276.228 36.8064 278.285 38.9085 279.777 41.621C281.314 44.2883 282.082 47.3851 282.082 50.9113C282.082 54.4376 281.314 57.5569 279.777 60.2694C278.285 62.9367 276.228 65.0389 273.606 66.5759C270.984 68.0678 268.022 68.8137 264.722 68.8137ZM264.722 60.8797C266.259 60.8797 267.616 60.518 268.791 59.7947C270.012 59.0714 270.961 57.9638 271.639 56.4719C272.362 54.98 272.724 53.1265 272.724 50.9113C272.724 48.6961 272.362 46.8652 271.639 45.4185C270.961 43.9267 270.012 42.8191 268.791 42.0957C267.616 41.3272 266.282 40.9429 264.79 40.9429C263.343 40.9429 262.01 41.3272 260.789 42.0957C259.569 42.8191 258.597 43.9267 257.873 45.4185C257.195 46.8652 256.856 48.6961 256.856 50.9113C256.856 53.1265 257.195 54.98 257.873 56.4719C258.597 57.9638 259.546 59.0714 260.721 59.7947C261.942 60.518 263.276 60.8797 264.722 60.8797ZM289.972 68V33.8226H298.11L298.991 40.1292C299.805 38.6373 300.822 37.3715 302.043 36.3317C303.309 35.2919 304.733 34.4781 306.315 33.8904C307.942 33.3027 309.728 33.0089 311.672 33.0089V42.706H308.553C307.197 42.706 305.931 42.8643 304.755 43.1807C303.625 43.4972 302.631 44.0171 301.772 44.7404C300.913 45.4185 300.257 46.3679 299.805 47.5885C299.353 48.8091 299.127 50.3462 299.127 52.1997V68H289.972Z" fill="#4638FF"/>
<path d="M333.452 68.8137C329.971 68.8137 326.942 68.1808 324.365 66.915C321.788 65.6492 319.799 63.8861 318.398 61.6256C316.996 59.3652 316.296 56.7432 316.296 53.7594H322.263C322.263 55.613 322.693 57.3309 323.551 58.9132C324.41 60.4502 325.654 61.6935 327.281 62.6428C328.954 63.547 331.011 63.9991 333.452 63.9991C335.577 63.9991 337.385 63.66 338.877 62.9819C340.414 62.2586 341.567 61.2866 342.335 60.066C343.149 58.8453 343.556 57.4665 343.556 55.9294C343.556 54.0759 343.149 52.584 342.335 51.4538C341.567 50.2784 340.505 49.329 339.148 48.6057C337.792 47.8824 336.21 47.2495 334.401 46.707C332.638 46.1192 330.785 45.5089 328.841 44.876C325.089 43.6102 322.331 42.0279 320.568 40.1292C318.805 38.2304 317.923 35.7666 317.923 32.7376C317.923 30.1608 318.511 27.9004 319.686 25.9564C320.907 24.0125 322.625 22.498 324.84 21.413C327.1 20.2828 329.768 19.7177 332.842 19.7177C335.871 19.7177 338.493 20.2828 340.708 21.413C342.968 22.5432 344.732 24.1029 345.997 26.092C347.263 28.036 347.896 30.2964 347.896 32.8733H341.929C341.929 31.5622 341.59 30.2738 340.911 29.008C340.233 27.7421 339.194 26.7023 337.792 25.8886C336.436 25.0296 334.718 24.6002 332.638 24.6002C330.92 24.555 329.383 24.8488 328.027 25.4817C326.716 26.0694 325.676 26.9284 324.908 28.0586C324.184 29.1888 323.823 30.5676 323.823 32.1951C323.823 33.7322 324.139 34.9754 324.772 35.9248C325.45 36.8742 326.4 37.6879 327.62 38.3661C328.886 38.999 330.355 39.5867 332.028 40.1292C333.701 40.6717 335.554 41.282 337.589 41.9601C339.894 42.7286 341.929 43.678 343.692 44.8082C345.5 45.8932 346.901 47.2947 347.896 49.0126C348.936 50.7305 349.456 52.9231 349.456 55.5904C349.456 57.8508 348.845 59.9982 347.625 62.0325C346.449 64.0217 344.686 65.6492 342.335 66.915C339.985 68.1808 337.024 68.8137 333.452 68.8137ZM372.721 68.8137C369.511 68.8137 366.618 68.0678 364.041 66.5759C361.509 65.0841 359.52 63.0045 358.073 60.3372C356.627 57.6247 355.903 54.5054 355.903 50.9791C355.903 47.3625 356.627 44.2205 358.073 41.5532C359.52 38.8859 361.509 36.8064 364.041 35.3145C366.618 33.7774 369.511 33.0089 372.721 33.0089C376.789 33.0089 380.18 34.0713 382.892 36.1961C385.605 38.2756 387.323 41.0785 388.046 44.6048H382.214C381.762 42.48 380.655 40.8299 378.892 39.6545C377.128 38.4791 375.049 37.8914 372.653 37.8914C370.709 37.8914 368.901 38.3887 367.228 39.3832C365.555 40.3326 364.222 41.7793 363.227 43.7232C362.232 45.6672 361.735 48.0632 361.735 50.9113C361.735 53.0361 362.029 54.9348 362.617 56.6075C363.204 58.235 363.995 59.5913 364.99 60.6763C365.985 61.7613 367.137 62.5976 368.448 63.1853C369.805 63.7278 371.206 63.9991 372.653 63.9991C374.28 63.9991 375.75 63.7504 377.061 63.2531C378.372 62.7106 379.479 61.9195 380.383 60.8797C381.288 59.8399 381.898 58.6193 382.214 57.2179H388.046C387.323 60.6537 385.582 63.4566 382.825 65.6266C380.112 67.7514 376.744 68.8137 372.721 68.8137ZM396.134 68V33.8226H401.288L401.694 40.3326C402.463 38.7955 403.435 37.4845 404.61 36.3995C405.831 35.3145 407.278 34.4781 408.95 33.8904C410.668 33.3027 412.612 33.0089 414.782 33.0089V38.9764H412.68C411.233 38.9764 409.855 39.1798 408.544 39.5867C407.232 39.9483 406.057 40.5586 405.017 41.4176C404.023 42.2766 403.232 43.452 402.644 44.9438C402.101 46.3905 401.83 48.1988 401.83 50.3688V68H396.134ZM421.775 68V33.8226H427.471V68H421.775ZM424.623 26.5667C423.493 26.5667 422.543 26.2051 421.775 25.4817C421.052 24.7132 420.69 23.7638 420.69 22.6336C420.69 21.5034 421.052 20.5992 421.775 19.9211C422.543 19.1978 423.493 18.8361 424.623 18.8361C425.708 18.8361 426.635 19.1978 427.403 19.9211C428.172 20.5992 428.556 21.5034 428.556 22.6336C428.556 23.7638 428.172 24.7132 427.403 25.4817C426.635 26.2051 425.708 26.5667 424.623 26.5667ZM437.523 82.9187V33.8226H442.677L443.152 39.3832C443.875 38.2982 444.802 37.2811 445.932 36.3317C447.062 35.3371 448.418 34.546 450.001 33.9583C451.583 33.3253 453.391 33.0089 455.426 33.0089C458.771 33.0089 461.664 33.8 464.106 35.3823C466.592 36.9646 468.513 39.112 469.87 41.8245C471.271 44.4918 471.972 47.5433 471.972 50.9791C471.972 54.4149 471.271 57.4891 469.87 60.2016C468.513 62.8689 466.592 64.9711 464.106 66.5081C461.619 68.0452 458.703 68.8137 455.358 68.8137C452.6 68.8137 450.159 68.2486 448.034 67.1184C445.955 65.9882 444.35 64.406 443.219 62.3716V82.9187H437.523ZM454.748 63.8635C456.963 63.8635 458.929 63.321 460.647 62.236C462.365 61.151 463.699 59.6591 464.648 57.7604C465.643 55.8164 466.14 53.5334 466.14 50.9113C466.14 48.3344 465.643 46.074 464.648 44.1301C463.699 42.1861 462.365 40.6717 460.647 39.5867C458.929 38.5017 456.963 37.9592 454.748 37.9592C452.487 37.9592 450.498 38.5017 448.78 39.5867C447.062 40.6717 445.728 42.1861 444.779 44.1301C443.83 46.074 443.355 48.3344 443.355 50.9113C443.355 53.5334 443.83 55.8164 444.779 57.7604C445.728 59.6591 447.062 61.151 448.78 62.236C450.498 63.321 452.487 63.8635 454.748 63.8635ZM492.074 68C490.04 68 488.277 67.6835 486.785 67.0506C485.293 66.4177 484.14 65.3553 483.327 63.8635C482.558 62.3264 482.174 60.2694 482.174 57.6925V38.6373H476.206V33.8226H482.174L482.92 25.5495H487.87V33.8226H497.771V38.6373H487.87V57.6925C487.87 59.8173 488.3 61.264 489.159 62.0325C490.017 62.7559 491.532 63.1175 493.702 63.1175H497.364V68H492.074Z" fill="#B3B3B3"/>
<rect x="22.5" y="10.5" width="11" height="11" fill="#A69FFF" stroke="#4638FF"/>
<rect x="8.5" y="10.5" width="11" height="11" fill="#A69FFF" stroke="#4638FF"/>
<rect x="50.5" y="10.5" width="11" height="11" fill="#A69FFF" stroke="#4638FF"/>
<rect x="22" y="24" width="12" height="12" fill="#D9D9D9"/>
<rect x="8" y="24" width="12" height="12" fill="#D9D9D9"/>
<rect x="22" y="38" width="12" height="12" fill="#D9D9D9"/>
<rect x="22" y="52" width="12" height="12" fill="#D9D9D9"/>
<rect x="22" y="66" width="12" height="12" fill="#D9D9D9"/>
<rect x="8" y="38" width="12" height="12" fill="#D9D9D9"/>
<rect x="8" y="52" width="12" height="12" fill="#D9D9D9"/>
<rect x="8" y="66" width="12" height="12" fill="#D9D9D9"/>
<rect x="50" y="24" width="12" height="12" fill="#D9D9D9"/>
<rect x="50" y="38" width="12" height="12" fill="#D9D9D9"/>
<rect x="50" y="52" width="12" height="12" fill="#D9D9D9"/>
<rect x="50" y="66" width="12" height="12" fill="#D9D9D9"/>
<rect x="64" y="52" width="12" height="12" fill="#D9D9D9"/>
<rect x="64" y="66" width="12" height="12" fill="#D9D9D9"/>
<rect x="36.5" y="10.5" width="11" height="11" fill="#A69FFF" stroke="#4638FF"/>
<rect x="64.5" y="10.5" width="11" height="11" fill="#A69FFF" stroke="#4638FF"/>
<rect x="36.5" y="24.5" width="11" height="11" fill="#A69FFF" stroke="#4638FF"/>
<rect x="36.5" y="38.5" width="11" height="11" fill="#A69FFF" stroke="#4638FF"/>
<rect x="36.5" y="52.5" width="11" height="11" fill="#A69FFF" stroke="#4638FF"/>
<rect x="36.5" y="66.5" width="11" height="11" fill="#A69FFF" stroke="#4638FF"/>
<rect x="64" y="24" width="12" height="12" fill="#D9D9D9"/>
<rect x="64" y="38" width="12" height="12" fill="#D9D9D9"/>
<path d="M24 20L24 12" stroke="#4638FF" stroke-width="0.5"/>
<path d="M10 20L10 12" stroke="#4638FF" stroke-width="0.5"/>
<path d="M52 20L52 12" stroke="#4638FF" stroke-width="0.5"/>
<path d="M24 34L24 26" stroke="#B3B3B3" stroke-width="0.5"/>
<path d="M10 34L10 26" stroke="#B3B3B3" stroke-width="0.5"/>
<path d="M24 48L24 40" stroke="#B3B3B3" stroke-width="0.5"/>
<path d="M24 62L24 54" stroke="#B3B3B3" stroke-width="0.5"/>
<path d="M24 76L24 68" stroke="#B3B3B3" stroke-width="0.5"/>
<path d="M10 48L10 40" stroke="#B3B3B3" stroke-width="0.5"/>
<path d="M10 62L10 54" stroke="#B3B3B3" stroke-width="0.5"/>
<path d="M10 76L10 68" stroke="#B3B3B3" stroke-width="0.5"/>
<path d="M52 34L52 26" stroke="#B3B3B3" stroke-width="0.5"/>
<path d="M52 48L52 40" stroke="#B3B3B3" stroke-width="0.5"/>
<path d="M52 62L52 54" stroke="#B3B3B3" stroke-width="0.5"/>
<path d="M52 76L52 68" stroke="#B3B3B3" stroke-width="0.5"/>
<path d="M66 62L66 54" stroke="#B3B3B3" stroke-width="0.5"/>
<path d="M66 76L66 68" stroke="#B3B3B3" stroke-width="0.5"/>
<path d="M38 20L38 12" stroke="#4638FF" stroke-width="0.5"/>
<path d="M66 20L66 12" stroke="#4638FF" stroke-width="0.5"/>
<path d="M38 34L38 26" stroke="#4638FF" stroke-width="0.5"/>
<path d="M38 48L38 40" stroke="#4638FF" stroke-width="0.5"/>
<path d="M38 62L38 54" stroke="#4638FF" stroke-width="0.5"/>
<path d="M38 76L38 68" stroke="#4638FF" stroke-width="0.5"/>
<path d="M66 34L66 26" stroke="#B3B3B3" stroke-width="0.5"/>
<path d="M66 48L66 40" stroke="#B3B3B3" stroke-width="0.5"/>
<path d="M26 20L26 12" stroke="#4638FF" stroke-width="0.5"/>
<path d="M12 20L12 12" stroke="#4638FF" stroke-width="0.5"/>
<path d="M54 20L54 12" stroke="#4638FF" stroke-width="0.5"/>
<path d="M26 34L26 26" stroke="#B3B3B3" stroke-width="0.5"/>
<path d="M12 34L12 26" stroke="#B3B3B3" stroke-width="0.5"/>
<path d="M26 48L26 40" stroke="#B3B3B3" stroke-width="0.5"/>
<path d="M26 62L26 54" stroke="#B3B3B3" stroke-width="0.5"/>
<path d="M26 76L26 68" stroke="#B3B3B3" stroke-width="0.5"/>
<path d="M12 48L12 40" stroke="#B3B3B3" stroke-width="0.5"/>
<path d="M12 62L12 54" stroke="#B3B3B3" stroke-width="0.5"/>
<path d="M12 76L12 68" stroke="#B3B3B3" stroke-width="0.5"/>
<path d="M54 34L54 26" stroke="#B3B3B3" stroke-width="0.5"/>
<path d="M54 48L54 40" stroke="#B3B3B3" stroke-width="0.5"/>
<path d="M54 62L54 54" stroke="#B3B3B3" stroke-width="0.5"/>
<path d="M54 76L54 68" stroke="#B3B3B3" stroke-width="0.5"/>
<path d="M68 62L68 54" stroke="#B3B3B3" stroke-width="0.5"/>
<path d="M68 76L68 68" stroke="#B3B3B3" stroke-width="0.5"/>
<path d="M40 20L40 12" stroke="#4638FF" stroke-width="0.5"/>
<path d="M68 20L68 12" stroke="#4638FF" stroke-width="0.5"/>
<path d="M40 34L40 26" stroke="#4638FF" stroke-width="0.5"/>
<path d="M40 48L40 40" stroke="#4638FF" stroke-width="0.5"/>
<path d="M40 62L40 54" stroke="#4638FF" stroke-width="0.5"/>
<path d="M40 76L40 68" stroke="#4638FF" stroke-width="0.5"/>
<path d="M68 34L68 26" stroke="#B3B3B3" stroke-width="0.5"/>
<path d="M68 48L68 40" stroke="#B3B3B3" stroke-width="0.5"/>
<path d="M28 20L28 12" stroke="#4638FF" stroke-width="0.5"/>
<path d="M14 20L14 12" stroke="#4638FF" stroke-width="0.5"/>
<path d="M56 20L56 12" stroke="#4638FF" stroke-width="0.5"/>
<path d="M28 34L28 26" stroke="#B3B3B3" stroke-width="0.5"/>
<path d="M14 34L14 26" stroke="#B3B3B3" stroke-width="0.5"/>
<path d="M28 48L28 40" stroke="#B3B3B3" stroke-width="0.5"/>
<path d="M28 62L28 54" stroke="#B3B3B3" stroke-width="0.5"/>
<path d="M28 76L28 68" stroke="#B3B3B3" stroke-width="0.5"/>
<path d="M14 48L14 40" stroke="#B3B3B3" stroke-width="0.5"/>
<path d="M14 62L14 54" stroke="#B3B3B3" stroke-width="0.5"/>
<path d="M14 76L14 68" stroke="#B3B3B3" stroke-width="0.5"/>
<path d="M56 34L56 26" stroke="#B3B3B3" stroke-width="0.5"/>
<path d="M56 48L56 40" stroke="#B3B3B3" stroke-width="0.5"/>
<path d="M56 62L56 54" stroke="#B3B3B3" stroke-width="0.5"/>
<path d="M56 76L56 68" stroke="#B3B3B3" stroke-width="0.5"/>
<path d="M70 62L70 54" stroke="#B3B3B3" stroke-width="0.5"/>
<path d="M70 76L70 68" stroke="#B3B3B3" stroke-width="0.5"/>
<path d="M42 20L42 12" stroke="#4638FF" stroke-width="0.5"/>
<path d="M70 20L70 12" stroke="#4638FF" stroke-width="0.5"/>
<path d="M42 34L42 26" stroke="#4638FF" stroke-width="0.5"/>
<path d="M42 48L42 40" stroke="#4638FF" stroke-width="0.5"/>
<path d="M42 62L42 54" stroke="#4638FF" stroke-width="0.5"/>
<path d="M42 76L42 68" stroke="#4638FF" stroke-width="0.5"/>
<path d="M70 34L70 26" stroke="#B3B3B3" stroke-width="0.5"/>
<path d="M70 48L70 40" stroke="#B3B3B3" stroke-width="0.5"/>
<path d="M30 20L30 12" stroke="#4638FF" stroke-width="0.5"/>
<path d="M16 20L16 12" stroke="#4638FF" stroke-width="0.5"/>
<path d="M58 20L58 12" stroke="#4638FF" stroke-width="0.5"/>
<path d="M30 34L30 26" stroke="#B3B3B3" stroke-width="0.5"/>
<path d="M16 34L16 26" stroke="#B3B3B3" stroke-width="0.5"/>
<path d="M30 48L30 40" stroke="#B3B3B3" stroke-width="0.5"/>
<path d="M30 62L30 54" stroke="#B3B3B3" stroke-width="0.5"/>
<path d="M30 76L30 68" stroke="#B3B3B3" stroke-width="0.5"/>
<path d="M16 48L16 40" stroke="#B3B3B3" stroke-width="0.5"/>
<path d="M16 62L16 54" stroke="#B3B3B3" stroke-width="0.5"/>
<path d="M16 76L16 68" stroke="#B3B3B3" stroke-width="0.5"/>
<path d="M58 34L58 26" stroke="#B3B3B3" stroke-width="0.5"/>
<path d="M58 48L58 40" stroke="#B3B3B3" stroke-width="0.5"/>
<path d="M58 62L58 54" stroke="#B3B3B3" stroke-width="0.5"/>
<path d="M58 76L58 68" stroke="#B3B3B3" stroke-width="0.5"/>
<path d="M72 62L72 54" stroke="#B3B3B3" stroke-width="0.5"/>
<path d="M72 76L72 68" stroke="#B3B3B3" stroke-width="0.5"/>
<path d="M44 20L44 12" stroke="#4638FF" stroke-width="0.5"/>
<path d="M72 20L72 12" stroke="#4638FF" stroke-width="0.5"/>
<path d="M44 34L44 26" stroke="#4638FF" stroke-width="0.5"/>
<path d="M44 48L44 40" stroke="#4638FF" stroke-width="0.5"/>
<path d="M44 62L44 54" stroke="#4638FF" stroke-width="0.5"/>
<path d="M44 76L44 68" stroke="#4638FF" stroke-width="0.5"/>
<path d="M72 34L72 26" stroke="#B3B3B3" stroke-width="0.5"/>
<path d="M72 48L72 40" stroke="#B3B3B3" stroke-width="0.5"/>
<path d="M32 20L32 12" stroke="#4638FF" stroke-width="0.5"/>
<path d="M18 20L18 12" stroke="#4638FF" stroke-width="0.5"/>
<path d="M60 20L60 12" stroke="#4638FF" stroke-width="0.5"/>
<path d="M32 34L32 26" stroke="#B3B3B3" stroke-width="0.5"/>
<path d="M18 34L18 26" stroke="#B3B3B3" stroke-width="0.5"/>
<path d="M32 48L32 40" stroke="#B3B3B3" stroke-width="0.5"/>
<path d="M32 62L32 54" stroke="#B3B3B3" stroke-width="0.5"/>
<path d="M32 76L32 68" stroke="#B3B3B3" stroke-width="0.5"/>
<path d="M18 48L18 40" stroke="#B3B3B3" stroke-width="0.5"/>
<path d="M18 62L18 54" stroke="#B3B3B3" stroke-width="0.5"/>
<path d="M18 76L18 68" stroke="#B3B3B3" stroke-width="0.5"/>
<path d="M60 34L60 26" stroke="#B3B3B3" stroke-width="0.5"/>
<path d="M60 48L60 40" stroke="#B3B3B3" stroke-width="0.5"/>
<path d="M60 62L60 54" stroke="#B3B3B3" stroke-width="0.5"/>
<path d="M60 76L60 68" stroke="#B3B3B3" stroke-width="0.5"/>
<path d="M74 62L74 54" stroke="#B3B3B3" stroke-width="0.5"/>
<path d="M74 76L74 68" stroke="#B3B3B3" stroke-width="0.5"/>
<path d="M46 20L46 12" stroke="#4638FF" stroke-width="0.5"/>
<path d="M74 20L74 12" stroke="#4638FF" stroke-width="0.5"/>
<path d="M46 34L46 26" stroke="#4638FF" stroke-width="0.5"/>
<path d="M46 48L46 40" stroke="#4638FF" stroke-width="0.5"/>
<path d="M46 62L46 54" stroke="#4638FF" stroke-width="0.5"/>
<path d="M46 76L46 68" stroke="#4638FF" stroke-width="0.5"/>
<path d="M74 34L74 26" stroke="#B3B3B3" stroke-width="0.5"/>
<path d="M74 48L74 40" stroke="#B3B3B3" stroke-width="0.5"/>
</svg>
