<svg width="504" height="92" viewBox="0 0 504 92" fill="none" xmlns="http://www.w3.org/2000/svg">
<path d="M101.732 67V26.923H87.8309V19.5314H124.653V26.923H110.819V67H101.732ZM141.256 67.8137C137.82 67.8137 134.768 67.0904 132.101 65.6438C129.479 64.1519 127.422 62.0949 125.93 59.4728C124.484 56.8056 123.76 53.7314 123.76 50.2504C123.76 46.6789 124.484 43.537 125.93 40.8245C127.422 38.0668 129.479 35.9194 132.101 34.3823C134.723 32.8 137.775 32.0089 141.256 32.0089C144.646 32.0089 147.608 32.7548 150.139 34.2467C152.671 35.7386 154.637 37.7503 156.039 40.282C157.44 42.8136 158.141 45.6844 158.141 48.8941C158.141 49.3462 158.141 49.8661 158.141 50.4538C158.141 50.9963 158.096 51.5614 158.005 52.1491H130.27V46.5885H148.919C148.783 44.3733 147.992 42.6328 146.545 41.367C145.144 40.1011 143.381 39.4682 141.256 39.4682C139.719 39.4682 138.295 39.8299 136.984 40.5532C135.673 41.2313 134.633 42.2937 133.864 43.7404C133.141 45.1871 132.779 47.018 132.779 49.2332V51.1997C132.779 53.0533 133.118 54.6808 133.797 56.0822C134.52 57.4385 135.514 58.5009 136.78 59.2694C138.046 59.9927 139.515 60.3544 141.188 60.3544C142.861 60.3544 144.24 59.9927 145.325 59.2694C146.455 58.5461 147.291 57.6193 147.834 56.4891H157.192C156.559 58.6139 155.496 60.5352 154.005 62.2531C152.513 63.9711 150.682 65.3273 148.512 66.3219C146.342 67.3165 143.923 67.8137 141.256 67.8137ZM165.639 67V32.8226H173.708L174.386 38.3832C175.426 36.4845 176.895 34.9474 178.794 33.772C180.738 32.5966 183.044 32.0089 185.711 32.0089C188.559 32.0089 190.955 32.5966 192.899 33.772C194.843 34.9474 196.312 36.6653 197.307 38.9257C198.347 41.1861 198.867 43.9664 198.867 47.2666V67H189.78V48.1482C189.78 45.4357 189.192 43.3561 188.017 41.9095C186.886 40.4628 185.123 39.7395 182.727 39.7395C181.19 39.7395 179.811 40.1011 178.591 40.8245C177.415 41.5478 176.489 42.5876 175.81 43.9438C175.132 45.2549 174.793 46.8598 174.793 48.7585V67H165.639ZM221.461 67.8137C218.341 67.8137 215.629 67.3165 213.323 66.3219C211.018 65.3273 209.209 63.9484 207.898 62.1853C206.587 60.4222 205.841 58.4331 205.661 56.2179H214.747C214.973 57.0768 215.358 57.868 215.9 58.5913C216.443 59.2694 217.166 59.8119 218.07 60.2188C218.974 60.6256 220.059 60.8291 221.325 60.8291C222.546 60.8291 223.54 60.6709 224.309 60.3544C225.077 59.9927 225.643 59.518 226.004 58.9303C226.411 58.3426 226.615 57.7323 226.615 57.0994C226.615 56.15 226.343 55.4267 225.801 54.9294C225.258 54.3869 224.467 53.9574 223.427 53.641C222.388 53.3245 221.122 53.0081 219.63 52.6916C218.002 52.3752 216.397 51.9909 214.815 51.5388C213.278 51.0415 211.899 50.4312 210.679 49.7079C209.458 48.9845 208.486 48.0578 207.763 46.9276C207.039 45.7974 206.678 44.3959 206.678 42.7232C206.678 40.6888 207.22 38.8805 208.305 37.2982C209.39 35.6707 210.972 34.3823 213.052 33.4329C215.132 32.4836 217.641 32.0089 220.579 32.0089C224.693 32.0089 227.948 32.9356 230.344 34.7892C232.74 36.6427 234.164 39.197 234.616 42.452H226.004C225.733 41.4122 225.123 40.5984 224.173 40.0107C223.269 39.3778 222.048 39.0614 220.511 39.0614C218.884 39.0614 217.641 39.3552 216.782 39.9429C215.923 40.5306 215.493 41.2992 215.493 42.2485C215.493 42.8814 215.765 43.4465 216.307 43.9438C216.895 44.4411 217.709 44.8706 218.748 45.2323C219.788 45.5487 221.054 45.8652 222.546 46.1816C225.168 46.7241 227.473 47.3571 229.463 48.0804C231.452 48.7585 233.011 49.7531 234.142 51.0641C235.272 52.33 235.837 54.1835 235.837 56.6247C235.837 58.7947 235.249 60.7387 234.074 62.4566C232.898 64.1293 231.226 65.4403 229.056 66.3897C226.931 67.3391 224.399 67.8137 221.461 67.8137ZM259.722 67.8137C256.467 67.8137 253.529 67.0678 250.907 65.5759C248.33 64.0389 246.273 61.9367 244.736 59.2694C243.244 56.5569 242.498 53.4602 242.498 49.9791C242.498 46.4077 243.244 43.2883 244.736 40.621C246.273 37.9085 248.352 35.8064 250.974 34.3145C253.597 32.7774 256.535 32.0089 259.79 32.0089C263.09 32.0089 266.029 32.7774 268.606 34.3145C271.228 35.8064 273.285 37.9085 274.777 40.621C276.314 43.2883 277.082 46.3851 277.082 49.9113C277.082 53.4376 276.314 56.5569 274.777 59.2694C273.285 61.9367 271.228 64.0389 268.606 65.5759C265.984 67.0678 263.022 67.8137 259.722 67.8137ZM259.722 59.8797C261.259 59.8797 262.616 59.518 263.791 58.7947C265.012 58.0714 265.961 56.9638 266.639 55.4719C267.362 53.98 267.724 52.1265 267.724 49.9113C267.724 47.6961 267.362 45.8652 266.639 44.4185C265.961 42.9267 265.012 41.8191 263.791 41.0957C262.616 40.3272 261.282 39.9429 259.79 39.9429C258.343 39.9429 257.01 40.3272 255.789 41.0957C254.569 41.8191 253.597 42.9267 252.873 44.4185C252.195 45.8652 251.856 47.6961 251.856 49.9113C251.856 52.1265 252.195 53.98 252.873 55.4719C253.597 56.9638 254.546 58.0714 255.721 58.7947C256.942 59.518 258.276 59.8797 259.722 59.8797ZM284.972 67V32.8226H293.11L293.991 39.1292C294.805 37.6373 295.822 36.3715 297.043 35.3317C298.309 34.2919 299.733 33.4781 301.315 32.8904C302.942 32.3027 304.728 32.0089 306.672 32.0089V41.706H303.553C302.197 41.706 300.931 41.8643 299.755 42.1807C298.625 42.4972 297.631 43.0171 296.772 43.7404C295.913 44.4185 295.257 45.3679 294.805 46.5885C294.353 47.8091 294.127 49.3462 294.127 51.1997V67H284.972Z" fill="#4638FF"/>
<path d="M328.452 67.8137C324.971 67.8137 321.942 67.1808 319.365 65.915C316.788 64.6492 314.799 62.8861 313.398 60.6256C311.996 58.3652 311.296 55.7432 311.296 52.7594H317.263C317.263 54.613 317.693 56.3309 318.551 57.9132C319.41 59.4502 320.654 60.6935 322.281 61.6428C323.954 62.547 326.011 62.9991 328.452 62.9991C330.577 62.9991 332.385 62.66 333.877 61.9819C335.414 61.2586 336.567 60.2866 337.335 59.066C338.149 57.8453 338.556 56.4665 338.556 54.9294C338.556 53.0759 338.149 51.584 337.335 50.4538C336.567 49.2784 335.505 48.329 334.148 47.6057C332.792 46.8824 331.21 46.2495 329.401 45.707C327.638 45.1192 325.785 44.5089 323.841 43.876C320.089 42.6102 317.331 41.0279 315.568 39.1292C313.805 37.2304 312.923 34.7666 312.923 31.7376C312.923 29.1608 313.511 26.9004 314.686 24.9564C315.907 23.0125 317.625 21.498 319.84 20.413C322.1 19.2828 324.768 18.7177 327.842 18.7177C330.871 18.7177 333.493 19.2828 335.708 20.413C337.968 21.5432 339.732 23.1029 340.997 25.092C342.263 27.036 342.896 29.2964 342.896 31.8733H336.929C336.929 30.5622 336.59 29.2738 335.911 28.008C335.233 26.7421 334.194 25.7023 332.792 24.8886C331.436 24.0296 329.718 23.6002 327.638 23.6002C325.92 23.555 324.383 23.8488 323.027 24.4817C321.716 25.0694 320.676 25.9284 319.908 27.0586C319.184 28.1888 318.823 29.5676 318.823 31.1951C318.823 32.7322 319.139 33.9754 319.772 34.9248C320.45 35.8742 321.4 36.6879 322.62 37.3661C323.886 37.999 325.355 38.5867 327.028 39.1292C328.701 39.6717 330.554 40.282 332.589 40.9601C334.894 41.7286 336.929 42.678 338.692 43.8082C340.5 44.8932 341.901 46.2947 342.896 48.0126C343.936 49.7305 344.456 51.9231 344.456 54.5904C344.456 56.8508 343.845 58.9982 342.625 61.0325C341.449 63.0217 339.686 64.6492 337.335 65.915C334.985 67.1808 332.024 67.8137 328.452 67.8137ZM367.721 67.8137C364.511 67.8137 361.618 67.0678 359.041 65.5759C356.509 64.0841 354.52 62.0045 353.073 59.3372C351.627 56.6247 350.903 53.5054 350.903 49.9791C350.903 46.3625 351.627 43.2205 353.073 40.5532C354.52 37.8859 356.509 35.8064 359.041 34.3145C361.618 32.7774 364.511 32.0089 367.721 32.0089C371.789 32.0089 375.18 33.0713 377.892 35.1961C380.605 37.2756 382.323 40.0785 383.046 43.6048H377.214C376.762 41.48 375.655 39.8299 373.892 38.6545C372.128 37.4791 370.049 36.8914 367.653 36.8914C365.709 36.8914 363.901 37.3887 362.228 38.3832C360.555 39.3326 359.222 40.7793 358.227 42.7232C357.232 44.6672 356.735 47.0632 356.735 49.9113C356.735 52.0361 357.029 53.9348 357.617 55.6075C358.204 57.235 358.995 58.5913 359.99 59.6763C360.985 60.7613 362.137 61.5976 363.448 62.1853C364.805 62.7278 366.206 62.9991 367.653 62.9991C369.28 62.9991 370.75 62.7504 372.061 62.2531C373.372 61.7106 374.479 60.9195 375.383 59.8797C376.288 58.8399 376.898 57.6193 377.214 56.2179H383.046C382.323 59.6537 380.582 62.4566 377.825 64.6266C375.112 66.7514 371.744 67.8137 367.721 67.8137ZM391.134 67V32.8226H396.288L396.694 39.3326C397.463 37.7955 398.435 36.4845 399.61 35.3995C400.831 34.3145 402.278 33.4781 403.95 32.8904C405.668 32.3027 407.612 32.0089 409.782 32.0089V37.9764H407.68C406.233 37.9764 404.855 38.1798 403.544 38.5867C402.232 38.9483 401.057 39.5586 400.017 40.4176C399.023 41.2766 398.232 42.452 397.644 43.9438C397.101 45.3905 396.83 47.1988 396.83 49.3688V67H391.134ZM416.775 67V32.8226H422.471V67H416.775ZM419.623 25.5667C418.493 25.5667 417.543 25.2051 416.775 24.4817C416.052 23.7132 415.69 22.7638 415.69 21.6336C415.69 20.5034 416.052 19.5992 416.775 18.9211C417.543 18.1978 418.493 17.8361 419.623 17.8361C420.708 17.8361 421.635 18.1978 422.403 18.9211C423.172 19.5992 423.556 20.5034 423.556 21.6336C423.556 22.7638 423.172 23.7132 422.403 24.4817C421.635 25.2051 420.708 25.5667 419.623 25.5667ZM432.523 81.9187V32.8226H437.677L438.152 38.3832C438.875 37.2982 439.802 36.2811 440.932 35.3317C442.062 34.3371 443.418 33.546 445.001 32.9583C446.583 32.3253 448.391 32.0089 450.426 32.0089C453.771 32.0089 456.664 32.8 459.106 34.3823C461.592 35.9646 463.513 38.112 464.87 40.8245C466.271 43.4918 466.972 46.5433 466.972 49.9791C466.972 53.4149 466.271 56.4891 464.87 59.2016C463.513 61.8689 461.592 63.9711 459.106 65.5081C456.619 67.0452 453.703 67.8137 450.358 67.8137C447.6 67.8137 445.159 67.2486 443.034 66.1184C440.955 64.9882 439.35 63.406 438.219 61.3716V81.9187H432.523ZM449.748 62.8635C451.963 62.8635 453.929 62.321 455.647 61.236C457.365 60.151 458.699 58.6591 459.648 56.7604C460.643 54.8164 461.14 52.5334 461.14 49.9113C461.14 47.3344 460.643 45.074 459.648 43.1301C458.699 41.1861 457.365 39.6717 455.647 38.5867C453.929 37.5017 451.963 36.9592 449.748 36.9592C447.487 36.9592 445.498 37.5017 443.78 38.5867C442.062 39.6717 440.728 41.1861 439.779 43.1301C438.83 45.074 438.355 47.3344 438.355 49.9113C438.355 52.5334 438.83 54.8164 439.779 56.7604C440.728 58.6591 442.062 60.151 443.78 61.236C445.498 62.321 447.487 62.8635 449.748 62.8635ZM487.074 67C485.04 67 483.277 66.6835 481.785 66.0506C480.293 65.4177 479.14 64.3553 478.327 62.8635C477.558 61.3264 477.174 59.2694 477.174 56.6925V37.6373H471.206V32.8226H477.174L477.92 24.5495H482.87V32.8226H492.771V37.6373H482.87V56.6925C482.87 58.8173 483.3 60.264 484.159 61.0325C485.017 61.7559 486.532 62.1175 488.702 62.1175H492.364V67H487.074Z" fill="#B3B3B3"/>
<rect x="22.5" y="10.5" width="11" height="11" fill="#4638FF" fill-opacity="0.48" stroke="#4638FF"/>
<rect x="8.5" y="10.5" width="11" height="11" fill="#4638FF" fill-opacity="0.48" stroke="#4638FF"/>
<rect x="50.5" y="10.5" width="11" height="11" fill="#4638FF" fill-opacity="0.48" stroke="#4638FF"/>
<rect x="22" y="24" width="12" height="12" fill="#D9D9D9"/>
<rect x="8" y="24" width="12" height="12" fill="#D9D9D9"/>
<rect x="22" y="38" width="12" height="12" fill="#D9D9D9"/>
<rect x="22" y="52" width="12" height="12" fill="#D9D9D9"/>
<rect x="22" y="66" width="12" height="12" fill="#D9D9D9"/>
<rect x="8" y="38" width="12" height="12" fill="#D9D9D9"/>
<rect x="8" y="52" width="12" height="12" fill="#D9D9D9"/>
<rect x="8" y="66" width="12" height="12" fill="#D9D9D9"/>
<rect x="50" y="24" width="12" height="12" fill="#D9D9D9"/>
<rect x="50" y="38" width="12" height="12" fill="#D9D9D9"/>
<rect x="50" y="52" width="12" height="12" fill="#D9D9D9"/>
<rect x="50" y="66" width="12" height="12" fill="#D9D9D9"/>
<rect x="64" y="52" width="12" height="12" fill="#D9D9D9"/>
<rect x="64" y="66" width="12" height="12" fill="#D9D9D9"/>
<rect x="36.5" y="10.5" width="11" height="11" fill="#4638FF" fill-opacity="0.48" stroke="#4638FF"/>
<rect x="64.5" y="10.5" width="11" height="11" fill="#4638FF" fill-opacity="0.48" stroke="#4638FF"/>
<rect x="36.5" y="24.5" width="11" height="11" fill="#4638FF" fill-opacity="0.48" stroke="#4638FF"/>
<rect x="36.5" y="38.5" width="11" height="11" fill="#4638FF" fill-opacity="0.48" stroke="#4638FF"/>
<rect x="36.5" y="52.5" width="11" height="11" fill="#4638FF" fill-opacity="0.48" stroke="#4638FF"/>
<rect x="36.5" y="66.5" width="11" height="11" fill="#4638FF" fill-opacity="0.48" stroke="#4638FF"/>
<rect x="64" y="24" width="12" height="12" fill="#D9D9D9"/>
<rect x="64" y="38" width="12" height="12" fill="#D9D9D9"/>
<path d="M24 20L24 12" stroke="#4638FF" stroke-width="0.5"/>
<path d="M10 20L10 12" stroke="#4638FF" stroke-width="0.5"/>
<path d="M52 20L52 12" stroke="#4638FF" stroke-width="0.5"/>
<path d="M24 34L24 26" stroke="#B3B3B3" stroke-width="0.5"/>
<path d="M10 34L10 26" stroke="#B3B3B3" stroke-width="0.5"/>
<path d="M24 48L24 40" stroke="#B3B3B3" stroke-width="0.5"/>
<path d="M24 62L24 54" stroke="#B3B3B3" stroke-width="0.5"/>
<path d="M24 76L24 68" stroke="#B3B3B3" stroke-width="0.5"/>
<path d="M10 48L10 40" stroke="#B3B3B3" stroke-width="0.5"/>
<path d="M10 62L10 54" stroke="#B3B3B3" stroke-width="0.5"/>
<path d="M10 76L10 68" stroke="#B3B3B3" stroke-width="0.5"/>
<path d="M52 34L52 26" stroke="#B3B3B3" stroke-width="0.5"/>
<path d="M52 48L52 40" stroke="#B3B3B3" stroke-width="0.5"/>
<path d="M52 62L52 54" stroke="#B3B3B3" stroke-width="0.5"/>
<path d="M52 76L52 68" stroke="#B3B3B3" stroke-width="0.5"/>
<path d="M66 62L66 54" stroke="#B3B3B3" stroke-width="0.5"/>
<path d="M66 76L66 68" stroke="#B3B3B3" stroke-width="0.5"/>
<path d="M38 20L38 12" stroke="#4638FF" stroke-width="0.5"/>
<path d="M66 20L66 12" stroke="#4638FF" stroke-width="0.5"/>
<path d="M38 34L38 26" stroke="#4638FF" stroke-width="0.5"/>
<path d="M38 48L38 40" stroke="#4638FF" stroke-width="0.5"/>
<path d="M38 62L38 54" stroke="#4638FF" stroke-width="0.5"/>
<path d="M38 76L38 68" stroke="#4638FF" stroke-width="0.5"/>
<path d="M66 34L66 26" stroke="#B3B3B3" stroke-width="0.5"/>
<path d="M66 48L66 40" stroke="#B3B3B3" stroke-width="0.5"/>
<path d="M26 20L26 12" stroke="#4638FF" stroke-width="0.5"/>
<path d="M12 20L12 12" stroke="#4638FF" stroke-width="0.5"/>
<path d="M54 20L54 12" stroke="#4638FF" stroke-width="0.5"/>
<path d="M26 34L26 26" stroke="#B3B3B3" stroke-width="0.5"/>
<path d="M12 34L12 26" stroke="#B3B3B3" stroke-width="0.5"/>
<path d="M26 48L26 40" stroke="#B3B3B3" stroke-width="0.5"/>
<path d="M26 62L26 54" stroke="#B3B3B3" stroke-width="0.5"/>
<path d="M26 76L26 68" stroke="#B3B3B3" stroke-width="0.5"/>
<path d="M12 48L12 40" stroke="#B3B3B3" stroke-width="0.5"/>
<path d="M12 62L12 54" stroke="#B3B3B3" stroke-width="0.5"/>
<path d="M12 76L12 68" stroke="#B3B3B3" stroke-width="0.5"/>
<path d="M54 34L54 26" stroke="#B3B3B3" stroke-width="0.5"/>
<path d="M54 48L54 40" stroke="#B3B3B3" stroke-width="0.5"/>
<path d="M54 62L54 54" stroke="#B3B3B3" stroke-width="0.5"/>
<path d="M54 76L54 68" stroke="#B3B3B3" stroke-width="0.5"/>
<path d="M68 62L68 54" stroke="#B3B3B3" stroke-width="0.5"/>
<path d="M68 76L68 68" stroke="#B3B3B3" stroke-width="0.5"/>
<path d="M40 20L40 12" stroke="#4638FF" stroke-width="0.5"/>
<path d="M68 20L68 12" stroke="#4638FF" stroke-width="0.5"/>
<path d="M40 34L40 26" stroke="#4638FF" stroke-width="0.5"/>
<path d="M40 48L40 40" stroke="#4638FF" stroke-width="0.5"/>
<path d="M40 62L40 54" stroke="#4638FF" stroke-width="0.5"/>
<path d="M40 76L40 68" stroke="#4638FF" stroke-width="0.5"/>
<path d="M68 34L68 26" stroke="#B3B3B3" stroke-width="0.5"/>
<path d="M68 48L68 40" stroke="#B3B3B3" stroke-width="0.5"/>
<path d="M28 20L28 12" stroke="#4638FF" stroke-width="0.5"/>
<path d="M14 20L14 12" stroke="#4638FF" stroke-width="0.5"/>
<path d="M56 20L56 12" stroke="#4638FF" stroke-width="0.5"/>
<path d="M28 34L28 26" stroke="#B3B3B3" stroke-width="0.5"/>
<path d="M14 34L14 26" stroke="#B3B3B3" stroke-width="0.5"/>
<path d="M28 48L28 40" stroke="#B3B3B3" stroke-width="0.5"/>
<path d="M28 62L28 54" stroke="#B3B3B3" stroke-width="0.5"/>
<path d="M28 76L28 68" stroke="#B3B3B3" stroke-width="0.5"/>
<path d="M14 48L14 40" stroke="#B3B3B3" stroke-width="0.5"/>
<path d="M14 62L14 54" stroke="#B3B3B3" stroke-width="0.5"/>
<path d="M14 76L14 68" stroke="#B3B3B3" stroke-width="0.5"/>
<path d="M56 34L56 26" stroke="#B3B3B3" stroke-width="0.5"/>
<path d="M56 48L56 40" stroke="#B3B3B3" stroke-width="0.5"/>
<path d="M56 62L56 54" stroke="#B3B3B3" stroke-width="0.5"/>
<path d="M56 76L56 68" stroke="#B3B3B3" stroke-width="0.5"/>
<path d="M70 62L70 54" stroke="#B3B3B3" stroke-width="0.5"/>
<path d="M70 76L70 68" stroke="#B3B3B3" stroke-width="0.5"/>
<path d="M42 20L42 12" stroke="#4638FF" stroke-width="0.5"/>
<path d="M70 20L70 12" stroke="#4638FF" stroke-width="0.5"/>
<path d="M42 34L42 26" stroke="#4638FF" stroke-width="0.5"/>
<path d="M42 48L42 40" stroke="#4638FF" stroke-width="0.5"/>
<path d="M42 62L42 54" stroke="#4638FF" stroke-width="0.5"/>
<path d="M42 76L42 68" stroke="#4638FF" stroke-width="0.5"/>
<path d="M70 34L70 26" stroke="#B3B3B3" stroke-width="0.5"/>
<path d="M70 48L70 40" stroke="#B3B3B3" stroke-width="0.5"/>
<path d="M30 20L30 12" stroke="#4638FF" stroke-width="0.5"/>
<path d="M16 20L16 12" stroke="#4638FF" stroke-width="0.5"/>
<path d="M58 20L58 12" stroke="#4638FF" stroke-width="0.5"/>
<path d="M30 34L30 26" stroke="#B3B3B3" stroke-width="0.5"/>
<path d="M16 34L16 26" stroke="#B3B3B3" stroke-width="0.5"/>
<path d="M30 48L30 40" stroke="#B3B3B3" stroke-width="0.5"/>
<path d="M30 62L30 54" stroke="#B3B3B3" stroke-width="0.5"/>
<path d="M30 76L30 68" stroke="#B3B3B3" stroke-width="0.5"/>
<path d="M16 48L16 40" stroke="#B3B3B3" stroke-width="0.5"/>
<path d="M16 62L16 54" stroke="#B3B3B3" stroke-width="0.5"/>
<path d="M16 76L16 68" stroke="#B3B3B3" stroke-width="0.5"/>
<path d="M58 34L58 26" stroke="#B3B3B3" stroke-width="0.5"/>
<path d="M58 48L58 40" stroke="#B3B3B3" stroke-width="0.5"/>
<path d="M58 62L58 54" stroke="#B3B3B3" stroke-width="0.5"/>
<path d="M58 76L58 68" stroke="#B3B3B3" stroke-width="0.5"/>
<path d="M72 62L72 54" stroke="#B3B3B3" stroke-width="0.5"/>
<path d="M72 76L72 68" stroke="#B3B3B3" stroke-width="0.5"/>
<path d="M44 20L44 12" stroke="#4638FF" stroke-width="0.5"/>
<path d="M72 20L72 12" stroke="#4638FF" stroke-width="0.5"/>
<path d="M44 34L44 26" stroke="#4638FF" stroke-width="0.5"/>
<path d="M44 48L44 40" stroke="#4638FF" stroke-width="0.5"/>
<path d="M44 62L44 54" stroke="#4638FF" stroke-width="0.5"/>
<path d="M44 76L44 68" stroke="#4638FF" stroke-width="0.5"/>
<path d="M72 34L72 26" stroke="#B3B3B3" stroke-width="0.5"/>
<path d="M72 48L72 40" stroke="#B3B3B3" stroke-width="0.5"/>
<path d="M32 20L32 12" stroke="#4638FF" stroke-width="0.5"/>
<path d="M18 20L18 12" stroke="#4638FF" stroke-width="0.5"/>
<path d="M60 20L60 12" stroke="#4638FF" stroke-width="0.5"/>
<path d="M32 34L32 26" stroke="#B3B3B3" stroke-width="0.5"/>
<path d="M18 34L18 26" stroke="#B3B3B3" stroke-width="0.5"/>
<path d="M32 48L32 40" stroke="#B3B3B3" stroke-width="0.5"/>
<path d="M32 62L32 54" stroke="#B3B3B3" stroke-width="0.5"/>
<path d="M32 76L32 68" stroke="#B3B3B3" stroke-width="0.5"/>
<path d="M18 48L18 40" stroke="#B3B3B3" stroke-width="0.5"/>
<path d="M18 62L18 54" stroke="#B3B3B3" stroke-width="0.5"/>
<path d="M18 76L18 68" stroke="#B3B3B3" stroke-width="0.5"/>
<path d="M60 34L60 26" stroke="#B3B3B3" stroke-width="0.5"/>
<path d="M60 48L60 40" stroke="#B3B3B3" stroke-width="0.5"/>
<path d="M60 62L60 54" stroke="#B3B3B3" stroke-width="0.5"/>
<path d="M60 76L60 68" stroke="#B3B3B3" stroke-width="0.5"/>
<path d="M74 62L74 54" stroke="#B3B3B3" stroke-width="0.5"/>
<path d="M74 76L74 68" stroke="#B3B3B3" stroke-width="0.5"/>
<path d="M46 20L46 12" stroke="#4638FF" stroke-width="0.5"/>
<path d="M74 20L74 12" stroke="#4638FF" stroke-width="0.5"/>
<path d="M46 34L46 26" stroke="#4638FF" stroke-width="0.5"/>
<path d="M46 48L46 40" stroke="#4638FF" stroke-width="0.5"/>
<path d="M46 62L46 54" stroke="#4638FF" stroke-width="0.5"/>
<path d="M46 76L46 68" stroke="#4638FF" stroke-width="0.5"/>
<path d="M74 34L74 26" stroke="#B3B3B3" stroke-width="0.5"/>
<path d="M74 48L74 40" stroke="#B3B3B3" stroke-width="0.5"/>
</svg>
